PathFileType	4	(X/Y/Z)	 s08c0301.trc
DataRate	CameraRate	NumFrames	NumMarkers	Units	OrigDataRate	OrigDataStartFrame	OrigNumFrames
200	200	4	50	mm	200	1751	2000
Frame#	Time	racr			lacr			c7			jug			rlel			rdr			llel			ldr			s2			lic			ric			lasi			rasi			rpsi			lpsi			rgt			lgt			rth1			rth2			rth3			rth4			rlfc			rmfc			rsh1			rsh2			rsh3			rsh4			rlmal			rmmal			rcal			rtoe			rmt5			lth1			lth2			lth4			lth3			llfc			lmfc			llmal			lmmal			lcal			lmt5			lsh1			lsh2			lsh3			lsh4			ltoe			SBIKE			LBIKE			RBIKE			
		X1	Y1	Z1	X2	Y2	Z2	X3	Y3	Z3	X4	Y4	Z4	X5	Y5	Z5	X6	Y6	Z6	X7	Y7	Z7	X8	Y8	Z8	X9	Y9	Z9	X10	Y10	Z10	X11	Y11	Z11	X12	Y12	Z12	X13	Y13	Z13	X14	Y14	Z14	X15	Y15	Z15	X16	Y16	Z16	X17	Y17	Z17	X18	Y18	Z18	X19	Y19	Z19	X20	Y20	Z20	X21	Y21	Z21	X22	Y22	Z22	X23	Y23	Z23	X24	Y24	Z24	X25	Y25	Z25	X26	Y26	Z26	X27	Y27	Z27	X28	Y28	Z28	X29	Y29	Z29	X30	Y30	Z30	X31	Y31	Z31	X32	Y32	Z32	X33	Y33	Z33	X34	Y34	Z34	X35	Y35	Z35	X36	Y36	Z36	X37	Y37	Z37	X38	Y38	Z38	X39	Y39	Z39	X40	Y40	Z40	X41	Y41	Z41	X42	Y42	Z42	X43	Y43	Z43	X44	Y44	Z44	X45	Y45	Z45	X46	Y46	Z46	X47	Y47	Z47	X48	Y48	Z48	X49	Y49	Z49	X50	Y50	Z50	
1751	8.7550	520.768257	1363.877836	-34.634939	539.532877	1375.571365	-376.581683	517.354969	1438.804677	-206.516980	471.583859	1287.924851	-204.743671	607.726004	1125.930105	24.739298	800.115824	886.520743	-43.709363	653.593915	1141.552602	-432.189879	815.088977	886.230736	-392.710538	-40.148302	1203.760548	-244.723484	140.301118	1187.726112	-378.815531	108.050192	1223.777684	-70.597316	156.004938	1131.538206	-344.046299	133.922682	1166.533395	-99.545451	-12.630053	1248.559626	-194.900850	-0.217044	1243.097563	-288.493280	26.041911	1122.737464	-30.217747	56.866735	1066.819809	-408.971491	169.194259	1037.141230	-4.688441	256.043379	1019.558214	3.457774	320.777873	961.291875	6.507115	273.134280	1050.719758	-9.153333	414.799448	889.187299	-6.221347	411.000928	885.041830	-118.198228	318.915918	799.238971	9.177341	285.284600	719.740959	-20.117839	217.175102	669.881697	-34.681462	312.626834	708.470444	-48.482174	140.102398	583.159861	-60.009201	168.388399	603.512252	-141.484251	58.438934	577.279572	-108.412317	342.243502	491.811529	-95.700798	247.213308	485.060149	-31.675318	108.819111	942.064307	-427.825911	159.784307	870.779573	-426.737597	192.726395	882.772238	-413.717241	166.546807	781.879727	-423.645630	203.826362	662.959406	-399.501668	199.007529	636.619006	-296.738152	224.279610	248.440588	-396.814821	262.405212	280.676066	-328.089325	164.069342	232.837944	-359.739373	365.393791	153.170714	-412.757145	202.125258	536.293136	-425.891655	229.737008	456.550937	-409.222704	217.905117	368.856739	-411.908911	249.856387	461.358771	-375.261306	447.491624	174.745883	-341.325447	-135.919089	942.652956	-222.002727	26.333272	84.088838	-426.196877	17.326288	80.174254	-28.014231	
1752	8.7600	520.571271	1363.761774	-34.402618	539.544345	1375.636733	-376.556865	517.386465	1438.967164	-206.456306	471.549244	1288.085496	-204.622507	607.664418	1125.889518	24.678339	800.069599	886.495362	-43.759821	653.844852	1141.687353	-431.951292	815.159105	886.172828	-392.672588	-39.884509	1203.653654	-244.799068	140.624504	1187.667153	-378.726147	108.219513	1223.816260	-70.582923	156.306834	1131.450978	-344.092780	134.184852	1166.801589	-99.696505	-12.404725	1248.515523	-194.973316	0.003154	1242.998266	-288.584486	26.481419	1123.057050	-30.127289	57.225192	1066.592648	-409.021144	170.144797	1038.192852	-5.041191	257.101686	1021.139936	2.970601	322.146169	963.169352	5.826722	273.964658	1052.340461	-9.832695	416.501756	891.558306	-7.042646	412.542278	887.203417	-119.111038	321.021363	801.158027	8.583222	287.739580	721.539772	-20.493260	219.840458	671.389754	-34.876607	315.038185	710.647647	-48.444499	143.099662	584.151626	-59.971876	171.285684	604.480531	-141.477200	61.387586	578.087818	-108.307635	345.319076	492.929077	-95.708397	250.236676	486.103532	-31.801034	109.305644	941.785792	-427.784506	160.624644	870.652883	-426.573162	193.428803	882.749331	-413.485349	167.684269	781.746437	-423.298726	205.404429	663.046714	-399.291069	200.607543	636.631849	-296.374828	221.878465	248.189507	-396.822852	260.172370	280.207584	-327.977654	161.600521	232.717340	-359.580634	362.413313	152.076402	-412.825355	202.356689	536.206552	-425.561310	229.265529	456.255318	-408.999650	216.549067	368.653873	-411.709167	249.483804	460.783183	-375.071323	444.678733	173.241861	-341.414075	-135.942663	942.720457	-222.031922	26.333680	84.093360	-426.194533	17.331349	80.205156	-27.986710	
1753	8.7650	520.404115	1363.690428	-34.119810	539.581058	1375.721607	-376.561400	517.449530	1439.118246	-206.380751	471.571949	1288.171487	-204.620940	607.614185	1125.904048	24.622808	800.077998	886.504101	-43.806588	654.126430	1141.832522	-431.745665	815.255042	886.134309	-392.626996	-39.618015	1203.523707	-244.890486	140.819919	1187.523744	-378.549925	108.371852	1223.922015	-70.564702	156.634397	1131.380170	-344.135367	134.467588	1167.063834	-99.888403	-12.156467	1248.442185	-195.099631	0.283945	1242.897126	-288.732594	26.970132	1123.411963	-29.989134	57.622277	1066.330547	-409.041433	171.089485	1039.339196	-5.349472	258.142224	1022.885787	2.645022	323.469555	965.039619	5.157842	274.844911	1053.928070	-10.508865	418.195216	893.819417	-7.886254	414.051168	889.315727	-119.893933	323.111737	803.126858	7.965111	290.127639	723.240542	-20.870336	222.542560	672.792142	-35.127250	317.496882	712.455239	-48.814032	146.160414	585.033160	-59.958273	174.237064	605.355306	-141.527785	64.401400	578.869045	-108.230845	348.526411	494.062543	-95.679192	253.538732	487.156902	-31.584845	109.843042	941.487889	-427.737146	161.441908	870.538479	-426.429680	194.227931	882.797116	-413.395549	168.797259	781.666891	-423.043827	206.921014	663.008015	-398.787038	202.372512	636.795762	-295.194652	219.402051	247.965728	-396.789808	257.983943	279.882688	-327.915128	158.975673	232.746696	-359.560843	359.397574	151.015857	-412.811976	202.508786	536.103608	-425.026150	228.765599	455.926451	-408.704980	215.166289	368.517575	-411.484614	249.123545	460.310950	-374.864380	441.728986	171.754540	-341.479871	-135.929087	942.709928	-221.997529	26.331796	84.098214	-426.192814	17.346026	80.166054	-28.003748	
1754	8.7700	520.249367	1363.628261	-33.915568	539.608976	1375.805274	-376.509762	517.498295	1439.271735	-206.257432	471.578933	1288.460492	-204.522557	607.570852	1125.901830	24.544100	799.557794	885.951757	-44.502480	654.386126	1141.940762	-431.532728	815.356943	886.115101	-392.610855	-39.357405	1203.437386	-244.934584	141.039488	1187.416751	-378.445816	108.594996	1224.036845	-70.551220	156.927100	1131.281291	-344.139077	134.764674	1167.371609	-100.062619	-11.921874	1248.372841	-195.134870	0.529503	1242.769538	-288.826751	27.421093	1123.814499	-29.882228	58.037479	1066.143118	-409.039540	171.993141	1040.439024	-5.720850	259.182177	1024.448717	2.054636	324.797530	966.963313	4.424012	275.695474	1055.541785	-11.255656	419.862186	896.209530	-8.774811	415.565922	891.425314	-120.656168	325.197703	805.048533	7.346493	292.584366	724.991839	-21.253399	225.257936	674.062829	-35.355955	320.019318	714.216353	-49.172487	149.274635	585.921773	-59.973337	177.270006	606.248149	-141.536130	67.438969	579.545237	-108.129203	351.767596	495.227742	-95.707822	256.820503	488.117559	-31.553726	110.530990	941.180703	-427.645789	162.393558	870.494714	-426.260050	195.107664	882.874636	-413.279929	170.121299	781.637773	-422.657260	208.611734	663.097144	-398.446522	204.146193	636.877838	-294.751403	216.917063	247.757833	-396.712672	255.597792	279.330286	-327.771510	156.309739	232.799592	-359.477523	356.255565	149.984083	-412.815404	202.899813	536.136070	-424.739918	228.357326	455.708328	-408.466440	213.851651	368.482430	-411.246369	248.826729	459.504577	-374.033952	438.742858	170.275266	-341.485476	-135.920857	942.726647	-221.988762	26.318086	84.233099	-426.293094	17.339725	80.191677	-27.989883	
